<svg xmlns="http://www.w3.org/2000/svg" width="24" height="18" fill="none"><path fill="#fff" d="M1.279.006a1.519 1.519 0 0 0 .48 3h4.498l.27.749 1.23 3.749 1.23 3.748c.119.39.629.75 1.019.75h10.496c.42 0 .9-.36 1.02-.75l2.429-7.497c.12-.39-.06-.75-.48-.75H10.156L9.016.845a1.5 1.5 0 0 0-1.32-.839H1.7a1.5 1.5 0 0 0-.27 0 1.5 1.5 0 0 0-.18 0h.03Zm9.476 14.995c-.84 0-1.499.66-1.499 1.5S9.916 18 10.756 18s1.499-.66 1.499-1.5-.66-1.499-1.5-1.499Zm8.997 0c-.84 0-1.5.66-1.5 1.5s.66 1.499 1.5 1.499 1.5-.66 1.5-1.5-.66-1.499-1.5-1.499Z"/></svg>